<?xml version="1.0" encoding="UTF-8"?>
<svg version="1.1" xmlns="http://www.w3.org/2000/svg" width="176" height="177">
<path d="M0 0 C1.11012451 0.00289032 2.22024902 0.00578064 3.36401367 0.00875854 C7.01045038 0.0226662 10.65623432 0.05908401 14.30249023 0.09741211 C16.84878515 0.11531281 19.39508572 0.13242617 21.94139099 0.14878845 C27.26820637 0.18674056 32.59475938 0.23596263 37.92138672 0.29345703 C44.06244176 0.35948845 50.20328632 0.39994356 56.3446241 0.42765528 C62.27629172 0.45536562 68.20763352 0.5051566 74.13908195 0.56374931 C76.65277439 0.58608532 79.16652825 0.60237506 81.68029976 0.61244392 C85.19620661 0.62898002 88.71096416 0.67067557 92.2265625 0.71875 C93.25899582 0.71843277 94.29142914 0.71811554 95.35514832 0.7177887 C101.82444144 0.8400456 105.97575732 1.98974894 111.54858398 5.31225586 C111.54858398 5.97225586 111.54858398 6.63225586 111.54858398 7.31225586 C112.44383789 7.69704102 112.44383789 7.69704102 113.35717773 8.08959961 C115.76811368 9.43473856 116.95147972 10.68407823 118.61108398 12.87475586 C119.09706055 13.49479492 119.58303711 14.11483398 120.08374023 14.75366211 C124.20853277 21.95829974 124.98567215 28.94398814 124.92089844 37.12109375 C124.9245491 38.16294327 124.92819977 39.20479279 124.93196106 40.2782135 C124.94001926 43.6972826 124.9264964 47.11587072 124.91186523 50.53491211 C124.9113461 52.92427063 124.91186586 55.31362957 124.91337585 57.70298767 C124.91328634 62.70016898 124.9028994 67.69718826 124.88476562 72.69433594 C124.86206719 79.08867967 124.861539 85.48278713 124.86828327 91.87716007 C124.87162988 96.80747057 124.86498029 101.73772754 124.85515404 106.66802788 C124.85131463 109.02546343 124.85014858 111.38290495 124.85173988 113.74034309 C124.85211212 117.03794768 124.83944606 120.33525302 124.82324219 123.6328125 C124.8257196 124.59979065 124.82819702 125.5667688 124.83074951 126.56304932 C124.74765779 137.19719532 122.12271822 145.74227278 115.10717773 153.89428711 C110.03306594 158.5105843 103.63290067 161.42505856 96.79988098 161.45942688 C95.82286224 161.46658218 94.84584351 161.47373749 93.83921814 161.48110962 C92.23319481 161.48514297 92.23319481 161.48514297 90.59472656 161.48925781 C89.46597107 161.49582901 88.33721558 161.50240021 87.17425537 161.50917053 C83.43054134 161.52891648 79.68686747 161.54056946 75.94311523 161.55053711 C74.66504187 161.55461264 73.3869685 161.55868816 72.07016563 161.56288719 C66.0025099 161.58160194 59.93487852 161.59616579 53.86720163 161.60449916 C46.87497598 161.61426198 39.88306772 161.64055749 32.89095384 161.68100005 C26.82598179 161.71486956 20.76114252 161.72665004 14.69608116 161.73070335 C12.1209161 161.73557334 9.54575453 161.74719893 6.97065163 161.76574135 C3.36331607 161.79010056 -0.24319322 161.78917295 -3.85058594 161.78222656 C-4.911147 161.79503662 -5.97170807 161.80784668 -7.06440735 161.82104492 C-16.49244716 161.75499164 -22.61585818 158.84401113 -29.45141602 152.31225586 C-33.76613978 147.11307349 -36.68053479 142.19305507 -36.73902893 135.27403259 C-36.75189438 134.28321686 -36.76475983 133.29240112 -36.77801514 132.27156067 C-36.78372528 130.65769722 -36.78372528 130.65769722 -36.78955078 129.01123047 C-36.80108688 127.86910095 -36.81262299 126.72697144 -36.82450867 125.55023193 C-36.85881643 121.77167386 -36.87732031 117.99327926 -36.89282227 114.21459961 C-36.90317662 112.27463199 -36.90317662 112.27463199 -36.91374016 110.2954731 C-36.94588663 104.15306405 -36.97034516 98.01073227 -36.98255402 91.86825174 C-36.99677873 84.80560301 -37.04055741 77.74395872 -37.11005551 70.68164247 C-37.16835532 64.54296059 -37.18766209 58.40469309 -37.19343376 52.26574898 C-37.20130607 49.66593797 -37.22088581 47.06613384 -37.25265694 44.46650505 C-37.55701292 17.79850181 -37.55701292 17.79850181 -29.45141602 9.31225586 C-20.68612477 1.72274446 -11.34268957 -0.15248635 0 0 Z " fill="#01B99C" transform="translate(43.451416015625,8.687744140625)"/>
<path d="M0 0 C1.14153534 -0.0127597 2.28307068 -0.02551941 3.459198 -0.03866577 C4.68840973 -0.04089142 5.91762146 -0.04311707 7.18408203 -0.04541016 C8.45156281 -0.05206696 9.71904358 -0.05872375 11.02493286 -0.06558228 C13.70654339 -0.07570934 16.3877485 -0.0812644 19.06933594 -0.08007812 C22.49475714 -0.07987505 25.91934757 -0.10716859 29.34457207 -0.14162254 C32.62437716 -0.16929416 35.90417608 -0.16804222 39.18408203 -0.17041016 C41.02182693 -0.19196671 41.02182693 -0.19196671 42.896698 -0.21395874 C53.52879815 -0.15696291 53.52879815 -0.15696291 58.31689453 4.29052734 C61.21589374 8.77079884 60.49681047 14.14293236 60.31689453 19.29052734 C59.75099609 19.56767578 59.18509766 19.84482422 58.60205078 20.13037109 C57.86857422 20.49259766 57.13509766 20.85482422 56.37939453 21.22802734 C55.64849609 21.58767578 54.91759766 21.94732422 54.16455078 22.31787109 C52.35440426 23.15424562 52.35440426 23.15424562 51.31689453 24.29052734 C50.81647307 27.20590763 50.81647307 27.20590763 51.31689453 30.29052734 C53.53181138 32.15303539 53.53181138 32.15303539 56.31689453 33.29052734 C57.65214355 33.9533488 58.98584426 34.61931396 60.31689453 35.29052734 C60.93758419 44.98018252 60.93758419 44.98018252 58.62939453 49.85302734 C55.57904055 53.06826533 52.99152977 54.13070284 48.58532715 54.55122375 C47.59891235 54.55583115 46.61249756 54.56043854 45.59619141 54.56518555 C44.47152466 54.57471756 43.34685791 54.58424957 42.18811035 54.59407043 C40.98279663 54.59315903 39.77748291 54.59224762 38.53564453 54.59130859 C36.66628235 54.59773628 36.66628235 54.59773628 34.75915527 54.60429382 C31.45336781 54.61149933 28.14776285 54.60841749 24.84197998 54.60272217 C22.81869337 54.60302707 20.79569892 54.61307193 18.77246094 54.62670898 C14.88088229 54.65118283 10.98979048 54.65536528 7.09814453 54.65380859 C5.89283081 54.66301834 4.68751709 54.67222809 3.44567871 54.68171692 C2.32101196 54.67548813 1.19634521 54.66925934 0.03759766 54.6628418 C-1.44202454 54.66378593 -1.44202454 54.66378593 -2.95153809 54.66474915 C-6.19153908 54.22087248 -8.05138577 53.20480471 -10.68310547 51.29052734 C-13.91547383 46.60916627 -14.66857108 41.8419836 -13.68310547 36.29052734 C-11.62659559 34.00551637 -9.74909241 33.31902171 -6.93310547 32.10302734 C-4.50070746 30.55748102 -4.50070746 30.55748102 -4.36669922 28.32177734 C-4.37024355 26.30859919 -4.51864217 24.2969796 -4.68310547 22.29052734 C-7.65310547 21.30052734 -10.62310547 20.31052734 -13.68310547 19.29052734 C-14.30644705 9.5594727 -14.30644705 9.5594727 -11.93310547 4.72802734 C-8.22538426 0.71132937 -5.39877451 0.04101926 0 0 Z " fill="#04B89B" transform="translate(63.68310546875,62.70947265625)"/>
<path d="M0 0 C1.14153534 -0.0127597 2.28307068 -0.02551941 3.459198 -0.03866577 C4.68840973 -0.04089142 5.91762146 -0.04311707 7.18408203 -0.04541016 C8.45156281 -0.05206696 9.71904358 -0.05872375 11.02493286 -0.06558228 C13.70654339 -0.07570934 16.3877485 -0.0812644 19.06933594 -0.08007812 C22.49475714 -0.07987505 25.91934757 -0.10716859 29.34457207 -0.14162254 C32.62437716 -0.16929416 35.90417608 -0.16804222 39.18408203 -0.17041016 C41.02182693 -0.19196671 41.02182693 -0.19196671 42.896698 -0.21395874 C53.52879815 -0.15696291 53.52879815 -0.15696291 58.31689453 4.29052734 C61.21589374 8.77079884 60.49681047 14.14293236 60.31689453 19.29052734 C59.75099609 19.56767578 59.18509766 19.84482422 58.60205078 20.13037109 C57.86857422 20.49259766 57.13509766 20.85482422 56.37939453 21.22802734 C55.64849609 21.58767578 54.91759766 21.94732422 54.16455078 22.31787109 C52.35440426 23.15424562 52.35440426 23.15424562 51.31689453 24.29052734 C50.81647307 27.20590763 50.81647307 27.20590763 51.31689453 30.29052734 C53.53181138 32.15303539 53.53181138 32.15303539 56.31689453 33.29052734 C57.65214355 33.9533488 58.98584426 34.61931396 60.31689453 35.29052734 C60.93758419 44.98018252 60.93758419 44.98018252 58.62939453 49.85302734 C55.57904055 53.06826533 52.99152977 54.13070284 48.58532715 54.55122375 C47.59891235 54.55583115 46.61249756 54.56043854 45.59619141 54.56518555 C44.47152466 54.57471756 43.34685791 54.58424957 42.18811035 54.59407043 C40.98279663 54.59315903 39.77748291 54.59224762 38.53564453 54.59130859 C36.66628235 54.59773628 36.66628235 54.59773628 34.75915527 54.60429382 C31.45336781 54.61149933 28.14776285 54.60841749 24.84197998 54.60272217 C22.81869337 54.60302707 20.79569892 54.61307193 18.77246094 54.62670898 C14.88088229 54.65118283 10.98979048 54.65536528 7.09814453 54.65380859 C5.89283081 54.66301834 4.68751709 54.67222809 3.44567871 54.68171692 C2.32101196 54.67548813 1.19634521 54.66925934 0.03759766 54.6628418 C-1.44202454 54.66378593 -1.44202454 54.66378593 -2.95153809 54.66474915 C-6.19153908 54.22087248 -8.05138577 53.20480471 -10.68310547 51.29052734 C-13.91547383 46.60916627 -14.66857108 41.8419836 -13.68310547 36.29052734 C-11.62659559 34.00551637 -9.74909241 33.31902171 -6.93310547 32.10302734 C-4.50070746 30.55748102 -4.50070746 30.55748102 -4.36669922 28.32177734 C-4.37024355 26.30859919 -4.51864217 24.2969796 -4.68310547 22.29052734 C-7.65310547 21.30052734 -10.62310547 20.31052734 -13.68310547 19.29052734 C-14.30644705 9.5594727 -14.30644705 9.5594727 -11.93310547 4.72802734 C-8.22538426 0.71132937 -5.39877451 0.04101926 0 0 Z M-6.68310547 8.29052734 C-7.18479962 11.1212617 -7.18479962 11.1212617 -6.68310547 14.29052734 C-3.86598901 16.41874619 -3.86598901 16.41874619 -0.68310547 18.29052734 C2.20205795 21.75272345 2.85607318 24.77849619 2.66845703 29.29833984 C2.07289896 32.67316891 0.52017207 34.72996156 -1.68310547 37.29052734 C-2.59060547 37.78552734 -3.49810547 38.28052734 -4.43310547 38.79052734 C-5.17560547 39.28552734 -5.91810547 39.78052734 -6.68310547 40.29052734 C-7.18352693 43.37514705 -7.18352693 43.37514705 -6.68310547 46.29052734 C-5.59122564 47.6082802 -5.59122564 47.6082802 -2.9074707 47.40405273 C-1.09291382 47.39619751 -1.09291382 47.39619751 0.75830078 47.38818359 C2.06347656 47.38496094 3.36865234 47.38173828 4.71337891 47.37841797 C6.10205143 47.37006136 7.4907233 47.36159639 8.87939453 47.35302734 C10.27197109 47.348014 11.66454935 47.34345081 13.05712891 47.33935547 C16.47709323 47.32752168 19.89697297 47.31103615 23.31689453 47.29052734 C23.97689453 45.31052734 24.63689453 43.33052734 25.31689453 41.29052734 C26.63689453 41.62052734 27.95689453 41.95052734 29.31689453 42.29052734 C29.81189453 44.76552734 29.81189453 44.76552734 30.31689453 47.29052734 C33.77521039 47.31947282 37.23349525 47.33730735 40.69189453 47.35302734 C41.67673828 47.36140625 42.66158203 47.36978516 43.67626953 47.37841797 C44.61728516 47.38164063 45.55830078 47.38486328 46.52783203 47.38818359 C47.39714355 47.39342041 48.26645508 47.39865723 49.16210938 47.40405273 C51.36739447 47.43175086 51.36739447 47.43175086 53.31689453 46.29052734 C53.81858868 43.45979298 53.81858868 43.45979298 53.31689453 40.29052734 C50.49977807 38.1623085 50.49977807 38.1623085 47.31689453 36.29052734 C44.17717996 32.62752701 43.73883318 29.19486801 43.89501953 24.50927734 C44.63019115 20.64281921 46.45687253 18.95554784 49.31689453 16.29052734 C51.62939453 14.91552734 51.62939453 14.91552734 53.31689453 14.29052734 C53.31689453 12.31052734 53.31689453 10.33052734 53.31689453 8.29052734 C50.86414312 7.06415164 49.26631643 7.1763742 46.52783203 7.19287109 C45.11630859 7.19770508 45.11630859 7.19770508 43.67626953 7.20263672 C42.69142578 7.21101563 41.70658203 7.21939453 40.69189453 7.22802734 C39.20302734 7.23479492 39.20302734 7.23479492 37.68408203 7.24169922 C35.22829293 7.2535059 32.77262349 7.26997334 30.31689453 7.29052734 C29.65689453 9.27052734 28.99689453 11.25052734 28.31689453 13.29052734 C26.99689453 12.96052734 25.67689453 12.63052734 24.31689453 12.29052734 C23.98689453 10.64052734 23.65689453 8.99052734 23.31689453 7.29052734 C19.36589525 7.26582885 15.41492579 7.24766811 11.46386719 7.2355957 C9.45782902 7.22808699 7.45181251 7.21538264 5.44580078 7.20263672 C4.18896484 7.19941406 2.93212891 7.19619141 1.63720703 7.19287109 C0.47463379 7.18763428 -0.68793945 7.18239746 -1.88574219 7.17700195 C-4.63812739 7.09696452 -4.63812739 7.09696452 -6.68310547 8.29052734 Z " fill="#001913" transform="translate(63.68310546875,62.70947265625)"/>
<path d="M0 0 C3.45831586 -0.02894547 6.91660072 -0.04678 10.375 -0.0625 C11.35984375 -0.07087891 12.3446875 -0.07925781 13.359375 -0.08789062 C14.77089844 -0.09272461 14.77089844 -0.09272461 16.2109375 -0.09765625 C17.51490479 -0.10551147 17.51490479 -0.10551147 18.84521484 -0.11352539 C21 0 21 0 23 1 C23.375 3.75 23.375 3.75 23 7 C20.1875 9.125 20.1875 9.125 17 11 C14.86071476 12.92535672 14.12323752 14.20428122 13.68359375 17.04296875 C13.39969206 22.51036578 14.27806496 25.77510077 18 30 C18.9075 30.495 19.815 30.99 20.75 31.5 C21.86375 32.2425 21.86375 32.2425 23 33 C23.3125 36.1875 23.3125 36.1875 23 39 C20.54724859 40.2263757 18.9494219 40.11415314 16.2109375 40.09765625 C15.26992187 40.09443359 14.32890625 40.09121094 13.359375 40.08789062 C12.37453125 40.07951172 11.3896875 40.07113281 10.375 40.0625 C8.88613281 40.05573242 8.88613281 40.05573242 7.3671875 40.04882812 C4.9113984 40.03702145 2.45572896 40.020554 0 40 C-0.66 37.36 -1.32 34.72 -2 32 C-2.99 32 -3.98 32 -5 32 C-7.26679704 25.4829585 -8.22024286 18.66072858 -6 12 C-5.01 11.34 -4.02 10.68 -3 10 C-2.34 9.34 -1.68 8.68 -1 8 C-1 7.01 -1 6.02 -1 5 C-0.68911632 3.32900023 -0.35919668 1.66128463 0 0 Z " fill="#06B69A" transform="translate(94,70)"/>
<path d="M0 0 C1.1416864 -0.0127597 2.2833728 -0.02551941 3.45965576 -0.03866577 C4.69919006 -0.04089142 5.93872437 -0.04311707 7.21582031 -0.04541016 C8.48613098 -0.05206696 9.75644165 -0.05872375 11.06524658 -0.06558228 C13.75880897 -0.07572647 16.45196807 -0.08126195 19.14550781 -0.08007812 C22.58668043 -0.07987545 26.02702231 -0.10711564 29.4679985 -0.14162254 C32.75890756 -0.16930617 36.04981067 -0.16804305 39.34082031 -0.17041016 C41.18797638 -0.19196671 41.18797638 -0.19196671 43.07244873 -0.21395874 C53.76514277 -0.15695865 53.76514277 -0.15695865 58.54394531 4.29052734 C61.44294452 8.77079884 60.72386125 14.14293236 60.54394531 19.29052734 C59.97804688 19.56767578 59.41214844 19.84482422 58.82910156 20.13037109 C58.095625 20.49259766 57.36214844 20.85482422 56.60644531 21.22802734 C55.87554687 21.58767578 55.14464844 21.94732422 54.39160156 22.31787109 C52.58145504 23.15424562 52.58145504 23.15424562 51.54394531 24.29052734 C51.04352385 27.20590763 51.04352385 27.20590763 51.54394531 30.29052734 C53.75886216 32.15303539 53.75886216 32.15303539 56.54394531 33.29052734 C57.86394531 33.95052734 59.18394531 34.61052734 60.54394531 35.29052734 C60.54394531 38.92052734 60.54394531 42.55052734 60.54394531 46.29052734 C60.21394531 46.29052734 59.88394531 46.29052734 59.54394531 46.29052734 C59.54394531 43.65052734 59.54394531 41.01052734 59.54394531 38.29052734 C59.00769531 38.64115234 58.47144531 38.99177734 57.91894531 39.35302734 C54.61350862 40.65780498 52.91725639 40.39201667 49.54394531 39.29052734 C45.73422959 35.7965902 43.40000611 32.2714765 43.10644531 27.10302734 C43.14481082 22.35337741 44.69552073 20.03426325 47.84082031 16.60302734 C49.73467791 15.14354075 51.2072336 14.69691199 53.54394531 14.29052734 C53.54394531 12.31052734 53.54394531 10.33052734 53.54394531 8.29052734 C45.95394531 7.96052734 38.36394531 7.63052734 30.54394531 7.29052734 C30.54394531 6.96052734 30.54394531 6.63052734 30.54394531 6.29052734 C37.14394531 6.29052734 43.74394531 6.29052734 50.54394531 6.29052734 C50.04894531 4.80552734 50.04894531 4.80552734 49.54394531 3.29052734 C45.29395965 3.26149739 41.04399951 3.24371847 36.79394531 3.22802734 C35.58738281 3.21964844 34.38082031 3.21126953 33.13769531 3.20263672 C31.97753906 3.19941406 30.81738281 3.19619141 29.62207031 3.19287109 C28.55375977 3.18763428 27.48544922 3.18239746 26.38476562 3.17700195 C23.92005296 3.27549726 21.89149064 3.5748727 19.54394531 4.29052734 C19.54394531 3.96052734 19.54394531 3.63052734 19.54394531 3.29052734 C10.63394531 2.96052734 1.72394531 2.63052734 -7.45605469 2.29052734 C-4.8309429 -0.33458444 -3.6613573 0.02769598 0 0 Z " fill="#011B15" transform="translate(63.4560546875,62.70947265625)"/>
<path d="M0 0 C0.1363128 1.56002428 0.23259126 3.12357176 0.3125 4.6875 C0.37050781 5.55761719 0.42851563 6.42773438 0.48828125 7.32421875 C0 10 0 10 -1.71875 12.8125 C-6.8367998 16.2245332 -11.81491267 15.53089954 -17.8125 15.3125 C-18.98232422 15.28994141 -20.15214844 15.26738281 -21.35742188 15.24414062 C-24.23958769 15.18532091 -27.11913681 15.10317141 -30 15 C-30 14.34 -30 13.68 -30 13 C-30.99 13.33 -31.98 13.66 -33 14 C-37.5573205 14.20593952 -42.11705525 14.18580098 -46.6784668 14.18530273 C-48.92581128 14.18748863 -51.17266424 14.20565452 -53.41992188 14.22460938 C-54.85156083 14.2275437 -56.2832021 14.22952823 -57.71484375 14.23046875 C-59.66571899 14.23663208 -59.66571899 14.23663208 -61.65600586 14.24291992 C-64.77156288 14.01659451 -66.49719489 13.82128303 -69 12 C-70.25 8.875 -70.25 8.875 -71 6 C-68 6 -68 6 -65 8 C-61.89791016 8.3696435 -61.89791016 8.3696435 -58.36328125 8.4140625 C-57.06455078 8.45273438 -55.76582031 8.49140625 -54.42773438 8.53125 C-53.05599427 8.56270517 -51.68424939 8.59395251 -50.3125 8.625 C-48.92901215 8.66319197 -47.54554777 8.70224442 -46.16210938 8.7421875 C-42.7748755 8.83660517 -39.38764931 8.92218118 -36 9 C-36.04125 8.21625 -36.0825 7.4325 -36.125 6.625 C-36 4 -36 4 -34 2 C-30.46428571 2.53571429 -30.46428571 2.53571429 -29 4 C-29 5.65 -29 7.3 -29 9 C-21.41 8.67 -13.82 8.34 -6 8 C-6 6.02 -6 4.04 -6 2 C-3 0 -3 0 0 0 Z " fill="#000D08" transform="translate(123,101)"/>
<path d="M0 0 C19.33333333 0 38.66666667 0 58 0 C58 1.32 58 2.64 58 4 C51.4 4 44.8 4 38 4 C38 5.98 38 7.96 38 10 C37.34 10.66 36.68 11.32 36 12 C32.46428571 11.46428571 32.46428571 11.46428571 31 10 C31 8.35 31 6.7 31 5 C21.43 4.67 11.86 4.34 2 4 C1.34 2.68 0.68 1.36 0 0 Z " fill="#000805" transform="translate(56,65)"/>
<path d="M0 0 C1.27561936 2.55123871 0.71154805 3.29847116 0 6 C-0.09757702 7.58819125 -0.14584287 9.17979724 -0.15821838 10.77093506 C-0.1680072 11.72723312 -0.17779602 12.68353119 -0.18788147 13.66880798 C-0.19363693 14.71106033 -0.1993924 15.75331268 -0.20532227 16.82714844 C-0.21522186 17.92988602 -0.22512146 19.0326236 -0.23532104 20.16877747 C-0.26692171 23.81562143 -0.29168794 27.46247842 -0.31640625 31.109375 C-0.336977 33.63714945 -0.35797351 36.16492047 -0.37937927 38.69268799 C-0.42894377 44.6672065 -0.47421237 50.64174264 -0.51740164 56.6163094 C-0.56681837 63.41920613 -0.62172002 70.22205514 -0.67708123 77.02490568 C-0.79082168 91.01655923 -0.89767794 105.00825862 -1 119 C-1.99 119.495 -1.99 119.495 -3 120 C-3.07010313 105.09225454 -3.12299455 90.18452186 -3.15543652 75.27664661 C-3.17090076 68.35454102 -3.19198168 61.43253788 -3.22631836 54.51049805 C-3.25943069 47.83209001 -3.2768466 41.15381048 -3.28463173 34.475317 C-3.29018076 31.92558808 -3.30101644 29.37586507 -3.31719017 26.82618141 C-3.33892276 23.258748 -3.3419686 19.69175639 -3.34057617 16.12426758 C-3.35675491 14.53822975 -3.35675491 14.53822975 -3.3732605 12.92015076 C-3.33581293 4.07127588 -3.33581293 4.07127588 0 0 Z " fill="#1FAA94" transform="translate(10,25)"/>
<path d="M0 0 C1.21816406 0.03480469 1.21816406 0.03480469 2.4609375 0.0703125 C3.68683594 0.09738281 3.68683594 0.09738281 4.9375 0.125 C5.87722656 0.15980469 5.87722656 0.15980469 6.8359375 0.1953125 C6.8359375 0.8553125 6.8359375 1.5153125 6.8359375 2.1953125 C5.8459375 2.6903125 5.8459375 2.6903125 4.8359375 3.1953125 C4.8359375 4.1853125 4.8359375 5.1753125 4.8359375 6.1953125 C4.1759375 6.1953125 3.5159375 6.1953125 2.8359375 6.1953125 C2.8359375 8.1753125 2.8359375 10.1553125 2.8359375 12.1953125 C1.5159375 11.5353125 0.1959375 10.8753125 -1.1640625 10.1953125 C0.23353655 13.74050134 0.23353655 13.74050134 1.8359375 17.1953125 C14.0459375 17.1953125 26.2559375 17.1953125 38.8359375 17.1953125 C38.8359375 17.8553125 38.8359375 18.5153125 38.8359375 19.1953125 C46.0959375 19.1953125 53.3559375 19.1953125 60.8359375 19.1953125 C60.8359375 19.5253125 60.8359375 19.8553125 60.8359375 20.1953125 C53.49047796 20.2649205 46.14508991 20.31817834 38.79936695 20.35074902 C35.38817989 20.36638389 31.97721901 20.38758164 28.56616211 20.42163086 C24.64179216 20.46055741 20.71751279 20.4750398 16.79296875 20.48828125 C15.57196976 20.50376511 14.35097076 20.51924896 13.0929718 20.53520203 C11.9521666 20.53542862 10.81136139 20.53565521 9.63598633 20.53588867 C8.63449051 20.54255051 7.63299469 20.54921234 6.60115051 20.55607605 C3.33267061 20.12965378 1.48489038 19.12870492 -1.1640625 17.1953125 C-4.38921888 12.52439637 -5.01791235 7.73979203 -4.1640625 2.1953125 C-2.1640625 0.1953125 -2.1640625 0.1953125 0 0 Z " fill="#002C23" transform="translate(54.1640625,96.8046875)"/>
<path d="M0 0 C1.71737114 -0.01429802 1.71737114 -0.01429802 3.46943665 -0.02888489 C4.712108 -0.02797348 5.95477936 -0.02706207 7.23510742 -0.02612305 C9.14413094 -0.03255074 9.14413094 -0.03255074 11.09172058 -0.03910828 C13.78947671 -0.04486174 16.48685156 -0.04627574 19.18457031 -0.04101562 C22.63467651 -0.03523383 26.08424362 -0.05211675 29.53426075 -0.0753603 C32.83037211 -0.09368014 36.12645432 -0.08991123 39.42260742 -0.08862305 C41.27750542 -0.10243767 41.27750542 -0.10243767 43.1698761 -0.11653137 C44.90143196 -0.10718819 44.90143196 -0.10718819 46.66796875 -0.09765625 C47.68119705 -0.09828568 48.69442535 -0.0989151 49.73835754 -0.0995636 C52.95947728 0.33252773 54.8770541 1.4399273 57.52807617 3.2746582 C57.19807617 4.5946582 56.86807617 5.9146582 56.52807617 7.2746582 C53.05108154 8.08332493 50.00645174 8.35015133 46.44604492 8.15356445 C45.51469727 8.10522461 44.58334961 8.05688477 43.6237793 8.00708008 C42.66407227 7.95100586 41.70436523 7.89493164 40.71557617 7.8371582 C39.7365332 7.78495117 38.75749023 7.73274414 37.7487793 7.67895508 C35.34151527 7.54978481 32.93471979 7.41484178 30.52807617 7.2746582 C30.52807617 6.9446582 30.52807617 6.6146582 30.52807617 6.2746582 C37.12807617 6.2746582 43.72807617 6.2746582 50.52807617 6.2746582 C50.03307617 4.7896582 50.03307617 4.7896582 49.52807617 3.2746582 C45.27809051 3.24562825 41.02813037 3.22784933 36.77807617 3.2121582 C35.57151367 3.2037793 34.36495117 3.19540039 33.12182617 3.18676758 C31.96166992 3.18354492 30.80151367 3.18032227 29.60620117 3.17700195 C28.53789063 3.17176514 27.46958008 3.16652832 26.36889648 3.16113281 C23.90418382 3.25962812 21.8756215 3.55900356 19.52807617 4.2746582 C19.52807617 3.9446582 19.52807617 3.6146582 19.52807617 3.2746582 C10.61807617 2.9446582 1.70807617 2.6146582 -7.47192383 2.2746582 C-4.84201274 -0.35525288 -3.66807428 0.01671899 0 0 Z " fill="#00271E" transform="translate(63.471923828125,62.725341796875)"/>
<path d="M0 0 C14.07360301 -0.09360288 28.14715748 -0.16379082 42.2210083 -0.20724869 C48.75633554 -0.2281081 55.29145341 -0.25639643 61.82666016 -0.30175781 C68.13550877 -0.34527314 74.44415618 -0.36914949 80.75314331 -0.37950897 C83.1580624 -0.38689003 85.56297069 -0.40130351 87.96780396 -0.42292023 C91.34075571 -0.45202877 94.71288 -0.45595274 98.0859375 -0.45410156 C99.07640579 -0.46848267 100.06687408 -0.48286377 101.08735657 -0.49768066 C107.4759957 -0.45983192 111.49481809 0.7285892 117 4 C116.67 4.99 116.34 5.98 116 7 C112.89448334 7 111.64738916 6.4606285 109 5 C109 4.34 109 3.68 109 3 C108.34 3 107.68 3 107 3 C107 2.34 107 1.68 107 1 C71.69 1 36.38 1 0 1 C0 0.67 0 0.34 0 0 Z " fill="#1DAB97" transform="translate(38,10)"/>
<path d="M0 0 C2 2 2 2 2.23046875 4.3125 C2.20919922 5.6428125 2.20919922 5.6428125 2.1875 7 C2.17783203 8.3303125 2.17783203 8.3303125 2.16796875 9.6875 C2 12 2 12 1 14 C-0.7421875 14.81640625 -0.7421875 14.81640625 -2.875 15.5625 C-3.92300781 15.93568359 -3.92300781 15.93568359 -4.9921875 16.31640625 C-6.65929413 16.88400092 -8.32929135 17.44309712 -10 18 C-10.33 18.66 -10.66 19.32 -11 20 C-11 19.01 -11 18.02 -11 17 C-10.34 16.67 -9.68 16.34 -9 16 C-7.95191959 14.02477154 -6.9479589 12.02518491 -6 10 C-5.34 10 -4.68 10 -4 10 C-4.12375 8.3603125 -4.12375 8.3603125 -4.25 6.6875 C-4 3 -4 3 -2 1.0625 C-1.34 0.711875 -0.68 0.36125 0 0 Z " fill="#000D0A" transform="translate(121,67)"/>
<path d="M0 0 C3.53571429 0.53571429 3.53571429 0.53571429 5 2 C5.1245486 3.64230364 5.17568524 5.29052276 5.1875 6.9375 C5.20167969 7.83339844 5.21585937 8.72929688 5.23046875 9.65234375 C5 12 5 12 3 14 C-0.53571429 13.46428571 -0.53571429 13.46428571 -2 12 C-2.1245486 10.35769636 -2.17568524 8.70947724 -2.1875 7.0625 C-2.20167969 6.16660156 -2.21585937 5.27070312 -2.23046875 4.34765625 C-2 2 -2 2 0 0 Z " fill="#002016" transform="translate(89,83)"/>
<path d="M0 0 C6.27 0 12.54 0 19 0 C19 1.32 19 2.64 19 4 C12.4 4 5.8 4 -1 4 C-0.67 2.68 -0.34 1.36 0 0 Z " fill="#000704" transform="translate(95,65)"/>
<path d="M0 0 C0.33 0.66 0.66 1.32 1 2 C1.66 2 2.32 2 3 2 C3.2475 3.11375 3.495 4.2275 3.75 5.375 C4.61005339 9.04615198 4.61005339 9.04615198 7.125 10.4375 C7.74375 10.623125 8.3625 10.80875 9 11 C9 11.99 9 12.98 9 14 C9.639375 14.28875 10.27875 14.5775 10.9375 14.875 C13 16 13 16 14 18 C16.03054705 18.83585019 18.09216868 19.46630271 20.1875 20.12109375 C20.785625 20.41113281 21.38375 20.70117188 22 21 C22.33 21.99 22.66 22.98 23 24 C15.05143202 22.47793379 8.86977606 17.85560519 4.0625 11.375 C1.66153087 7.44614143 0 4.62803537 0 0 Z " fill="#19A792" transform="translate(7,146)"/>
<path d="M0 0 C0.99 0.33 1.98 0.66 3 1 C3.843259 3.88113492 4.36695345 6.0645539 3.24609375 8.921875 C0.55936155 13.72031923 0.55936155 13.72031923 -2 15 C-1.85904936 13.3745692 -1.71207913 11.74965949 -1.5625 10.125 C-1.48128906 9.22007813 -1.40007813 8.31515625 -1.31640625 7.3828125 C-1 5 -1 5 0 3 C-0.66 2.67 -1.32 2.34 -2 2 C-1.34 2 -0.68 2 0 2 C0 1.34 0 0.68 0 0 Z " fill="#020B08" transform="translate(62,81)"/>
<path d="M0 0 C0.54957922 5.49579218 -1.03413634 9.46460996 -4 14 C-4.99 14.495 -4.99 14.495 -6 15 C-5.34 12.69 -4.68 10.38 -4 8 C-4.66 7.67 -5.32 7.34 -6 7 C-5.37162381 3.35541809 -4.14650034 0 0 0 Z " fill="#13AB95" transform="translate(167,143)"/>
<path d="M0 0 C0.33 0 0.66 0 1 0 C1 3.3 1 6.6 1 10 C-0.27875 10.515625 -1.5575 11.03125 -2.875 11.5625 C-5.99799714 13.08300473 -5.99799714 13.08300473 -7.9765625 15.82421875 C-8.59316932 17.95011148 -8.59316932 17.95011148 -9 21 C-9.33 21 -9.66 21 -10 21 C-10.66 18.36 -11.32 15.72 -12 13 C-8.33708062 10.52214277 -5.3890815 9.51035831 -1 9 C-0.67 6.03 -0.34 3.06 0 0 Z " fill="#012720" transform="translate(123,72)"/>
<path d="M0 0 C2.475 0.495 2.475 0.495 5 1 C5 2.32 5 3.64 5 5 C6.2375 6.2065625 6.2375 6.2065625 7.5 7.4375 C10 10 10 10 10.3125 12.8125 C10.1578125 13.8953125 10.1578125 13.8953125 10 15 C9.46375 14.2575 8.9275 13.515 8.375 12.75 C6.10799591 9.83284163 6.10799591 9.83284163 2.75 8.0625 C1.8425 7.381875 0.935 6.70125 0 6 C-0.375 2.75 -0.375 2.75 0 0 Z " fill="#15AA92" transform="translate(57,71)"/>
<path d="M0 0 C0.66 0 1.32 0 2 0 C2 4.33333333 2 8.66666667 2 13 C1.01 13 0.02 13 -1 13 C-2.12758089 9.61725734 -1.81750262 8.23221777 -1.0625 4.8125 C-0.86785156 3.91144531 -0.67320313 3.01039062 -0.47265625 2.08203125 C-0.23869141 1.05142578 -0.23869141 1.05142578 0 0 Z " fill="#0FB097" transform="translate(67,86)"/>
<path d="M0 0 C0.66 0.33 1.32 0.66 2 1 C0.33333333 2.66666667 -1.33333333 4.33333333 -3 6 C-3.556875 6.598125 -4.11375 7.19625 -4.6875 7.8125 C-6 9 -6 9 -8 9 C-8.33 9.99 -8.66 10.98 -9 12 C-9.33 11.34 -9.66 10.68 -10 10 C-7.19372222 5.25091453 -4.74908547 2.80627778 0 0 Z " fill="#189481" transform="translate(21,13)"/>
<path d="M0 0 C1.32 0.33 2.64 0.66 4 1 C3.67 3.97 3.34 6.94 3 10 C2.01 9.67 1.02 9.34 0 9 C0 6.03 0 3.06 0 0 Z " fill="#010905" transform="translate(89,85)"/>
<path d="M0 0 C3.625 -0.1875 3.625 -0.1875 7 0 C7 0.66 7 1.32 7 2 C6.01 2.495 6.01 2.495 5 3 C5 3.66 5 4.32 5 5 C3.35 5.33 1.7 5.66 0 6 C0 5.34 0 4.68 0 4 C-0.66 3.67 -1.32 3.34 -2 3 C-1.34 2.01 -0.68 1.02 0 0 Z " fill="#010805" transform="translate(54,97)"/>
<path d="M0 0 C0.33 0 0.66 0 1 0 C1.44701413 7.56198897 1.53574091 12.76335625 -3 19 C-3.99 19 -4.98 19 -6 19 C-6 17 -6 17 -4.0625 15 C-3.381875 14.34 -2.70125 13.68 -2 13 C-0.71553081 10.43106162 -0.67022856 8.23423663 -0.4375 5.375 C-0.35371094 4.37210937 -0.26992187 3.36921875 -0.18359375 2.3359375 C-0.12300781 1.56507812 -0.06242187 0.79421875 0 0 Z " fill="#14AC90" transform="translate(124,98)"/>
<path d="M0 0 C0.66 0.99 1.32 1.98 2 3 C1.125 5.6875 1.125 5.6875 0 8 C-0.66 8 -1.32 8 -2 8 C-2 7.01 -2 6.02 -2 5 C-2.66 5 -3.32 5 -4 5 C-4.33 5.99 -4.66 6.98 -5 8 C-5.33 7.01 -5.66 6.02 -6 5 C-4.02 3.35 -2.04 1.7 0 0 Z " fill="#0DB297" transform="translate(64,98)"/>
<path d="M0 0 C2.97 0.495 2.97 0.495 6 1 C7.18681726 4.56045177 7.09689832 7.43808337 7.0625 11.1875 C7.05347656 12.45980469 7.04445313 13.73210937 7.03515625 15.04296875 C7.02355469 16.01878906 7.01195313 16.99460937 7 18 C6.67 18 6.34 18 6 18 C5.90203125 17.11957031 5.8040625 16.23914063 5.703125 15.33203125 C5.55359375 14.17058594 5.4040625 13.00914063 5.25 11.8125 C5.11078125 10.66394531 4.9715625 9.51539062 4.828125 8.33203125 C3.91216662 4.64659492 2.55669431 2.7593591 0 0 Z " fill="#15A88F" transform="translate(118,64)"/>
<path d="M0 0 C-0.49831724 3.68754757 -1.10067643 5.60490662 -4 8 C-4.66 6.02 -5.32 4.04 -6 2 C-3 0 -3 0 0 0 Z " fill="#010909" transform="translate(123,101)"/>
<path d="M0 0 C0.66 0 1.32 0 2 0 C2 1.32 2 2.64 2 4 C2.66 4 3.32 4 4 4 C5.63676257 2.0399719 5.63676257 2.0399719 7 0 C7.125 2.375 7.125 2.375 7 5 C6.34 5.66 5.68 6.32 5 7 C1.46428571 6.46428571 1.46428571 6.46428571 0 5 C-0.04063832 3.33382885 -0.042721 1.66611905 0 0 Z " fill="#002920" transform="translate(87,70)"/>
<path d="M0 0 C3.35433109 0.94933899 6.69246505 1.89748835 10 3 C9.67 3.99 9.34 4.98 9 6 C5.89448334 6 4.64738916 5.4606285 2 4 C2 3.34 2 2.68 2 2 C1.34 2 0.68 2 0 2 C0 1.34 0 0.68 0 0 Z " fill="#0EAE96" transform="translate(145,11)"/>
<path d="M0 0 C0.99 0.66 1.98 1.32 3 2 C2.67 4.97 2.34 7.94 2 11 C0 10 0 10 -1.25 6.625 C-1.4975 5.42875 -1.745 4.2325 -2 3 C-1.34 2.01 -0.68 1.02 0 0 Z " fill="#16AD94" transform="translate(85,83)"/>
<path d="M0 0 C3.69230769 0.69230769 3.69230769 0.69230769 5 2 C5.07205511 3.68608966 5.08386068 5.37500659 5.0625 7.0625 C5.05347656 7.98160156 5.04445313 8.90070313 5.03515625 9.84765625 C5.02355469 10.55792969 5.01195313 11.26820312 5 12 C4.67 12 4.34 12 4 12 C4 9.03 4 6.06 4 3 C3.01 3.33 2.02 3.66 1 4 C1 3.34 1 2.68 1 2 C0.34 1.67 -0.32 1.34 -1 1 C-0.67 0.67 -0.34 0.34 0 0 Z " fill="#003B32" transform="translate(89,83)"/>
</svg>
